<?xml version="1.0" encoding="utf-8"?>
<!-- Generator: Adobe Illustrator 14.0.0, SVG Export Plug-In  -->
<!DOCTYPE svg PUBLIC "-//W3C//DTD SVG 1.1//EN" "http://www.w3.org/Graphics/SVG/1.1/DTD/svg11.dtd" [
	<!ENTITY ns_flows "http://ns.adobe.com/Flows/1.0/">
]>
<svg version="1.1"
	 xmlns="http://www.w3.org/2000/svg" xmlns:xlink="http://www.w3.org/1999/xlink" xmlns:a="http://ns.adobe.com/AdobeSVGViewerExtensions/3.0/"
	 x="0px" y="0px" width="75px" height="75px" viewBox="0 0 75 75" enable-background="new 0 0 75 75" xml:space="preserve">
<defs>
</defs>
<rect fill="#58544B" width="75" height="75"/>
<path fill="#FFFFFF" d="M51.537,28.577c0,0.553-0.455,1-1.017,1H25.158c-0.562,0-1.017-0.447-1.017-1V25.47c0-0.553,0.456-1,1.017-1
	h25.362c0.562,0,1.017,0.447,1.017,1V28.577z"/>
<path fill="#FFFFFF" d="M51.537,39.722c0,0.553-0.455,1-1.017,1H25.158c-0.562,0-1.017-0.447-1.017-1v-3.107
	c0-0.553,0.456-1,1.017-1h25.362c0.562,0,1.017,0.447,1.017,1V39.722z"/>
<path fill="#FFFFFF" d="M51.537,50.866c0,0.553-0.455,1-1.017,1H25.158c-0.562,0-1.017-0.447-1.017-1v-3.107
	c0-0.553,0.456-1,1.017-1h25.362c0.562,0,1.017,0.447,1.017,1V50.866z"/>
</svg>
